<?xml version="1.0" encoding="UTF-8"?>
<svg width="64px" height="75px" viewBox="0 0 64 75" version="1.1" xmlns="http://www.w3.org/2000/svg" xmlns:xlink="http://www.w3.org/1999/xlink">
    <!-- Generator: sketchtool 63.1 (101010) - https://sketch.com -->
    <title>2951C18E-8732-435B-B87C-76E695F8AD2C</title>
    <desc>Created with sketchtool.</desc>
    <defs>
        <polygon id="path-1" points="4.60130719e-05 1.5625e-05 62.5184669 1.5625e-05 62.5184669 75 4.60130719e-05 75"></polygon>
    </defs>
    <g id="Page-1" stroke="none" stroke-width="1" fill="none" fill-rule="evenodd">
        <g id="pf_r_01-copy-2" transform="translate(-67.000000, -494.000000)">
            <g id="Group-11-Copy-3" transform="translate(67.000000, 494.000000)">
                <g id="Group-11-Copy-2">
                    <g id="Group-17" transform="translate(0.822222, 0.000000)">
                        <polygon id="Fill-2" fill="#0056CA" points="20.8592593 18.75 31.9023965 18.75 31.9023965 16.25 20.8592593 16.25"></polygon>
                        <polygon id="Fill-4" fill="#0056CA" points="20.8592593 28.75 31.9023965 28.75 31.9023965 26.25 20.8592593 26.25"></polygon>
                        <path d="M9.816122,18.75 L15.9511983,18.75 L15.9511983,16.25 L9.816122,16.25 L9.816122,18.75 Z M7.3620915,21.25 L18.4052288,21.25 L18.4052288,13.75 L7.3620915,13.75 L7.3620915,21.25 Z" id="Fill-1" fill="#00ADEE"></path>
                        <path d="M9.816122,28.75 L15.9511983,28.75 L15.9511983,26.25 L9.816122,26.25 L9.816122,28.75 Z M7.3620915,31.25 L18.4052288,31.25 L18.4052288,23.75 L7.3620915,23.75 L7.3620915,31.25 Z" id="Fill-3" fill="#00ADEE"></path>
                        <path d="M9.816122,38.75 L15.9511983,38.75 L15.9511983,36.25 L9.816122,36.25 L9.816122,38.75 Z M7.3620915,41.25 L18.4052288,41.25 L18.4052288,33.75 L7.3620915,33.75 L7.3620915,41.25 Z" id="Fill-5" fill="#00ADEE"></path>
                        <path d="M9.816122,48.75 L15.9511983,48.75 L15.9511983,46.25 L9.816122,46.25 L9.816122,48.75 Z M7.3620915,51.25 L18.4052288,51.25 L18.4052288,43.75 L7.3620915,43.75 L7.3620915,51.25 Z" id="Fill-6" fill="#00ADEE"></path>
                        <polygon id="Fill-7" fill="#0056CA" points="7.3620915 61.25 15.9511983 61.25 15.9511983 58.75 7.3620915 58.75"></polygon>
                        <polygon id="Fill-8" fill="#0056CA" points="19.632244 61.25 33.1294118 61.25 33.1294118 58.75 19.632244 58.75"></polygon>
                        <polygon id="Fill-9" fill="#0056CA" points="34.356427 18.75 38.0374728 18.75 38.0374728 16.25 34.356427 16.25"></polygon>
                        <polygon id="Fill-10" fill="#0056CA" points="40.4915033 18.75 44.172549 18.75 44.172549 16.25 40.4915033 16.25"></polygon>
                        <g id="Group-16">
                            <g id="Group-13">
                                <mask id="mask-2" fill="white">
                                    <use xlink:href="#path-1"></use>
                                </mask>
                                <g id="Clip-12"></g>
                                <path d="M45.6612713,54.7476719 C37.5502403,54.7476719 30.9515057,48.0253281 30.9515057,39.7622031 C30.9515057,31.4992344 37.5502403,24.7768906 45.6612713,24.7768906 C53.7724556,24.7768906 60.3711902,31.4992344 60.3711902,39.7622031 C60.3711902,48.0253281 53.7724556,54.7476719 45.6612713,54.7476719 L45.6612713,54.7476719 Z M49.080656,62.0001719 L41.7185645,70.3748594 L41.7185645,65.0000156 C41.7185645,64.2498594 42.2092173,63.7500156 42.9455798,63.7500156 L45.3996103,63.7500156 L45.3996103,61.2500156 L42.9455798,61.2500156 C40.8593471,61.2500156 39.264534,62.8748594 39.264534,65.0000156 L39.264534,72.5000156 L3.68109176,72.5000156 C2.94472924,72.5000156 2.45407651,72.0001719 2.45407651,71.2500156 L2.45407651,3.75001562 C2.45407651,2.99985938 2.94472924,2.50001562 3.68109176,2.50001562 L47.8536408,2.50001562 C48.5900033,2.50001562 49.080656,2.99985938 49.080656,3.75001562 L49.080656,22.9447031 C47.9760356,22.7118906 46.8326107,22.5893906 45.6612713,22.5893906 C37.5476329,22.5893906 30.7548765,28.4595469 29.1591432,36.2500156 L20.8593053,36.2500156 L20.8593053,38.7500156 L28.8342909,38.7500156 C28.8149654,39.0850156 28.804229,39.4223594 28.804229,39.7622031 C28.804229,42.0567344 29.2493288,44.2472031 30.0545576,46.2500156 L20.8593053,46.2500156 L20.8593053,48.7500156 L31.303199,48.7500156 C34.2738029,53.6572031 39.5985889,56.9351719 45.6612713,56.9351719 C46.8326107,56.9351719 47.9760356,56.8125156 49.080656,56.5798594 L49.080656,62.0001719 Z M62.5184669,39.7622031 C62.5184669,32.3964219 57.9424669,26.0997031 51.5346865,23.6653281 L51.5346865,3.75001562 C51.5346865,1.62470312 49.9398735,1.5625e-05 47.8536408,1.5625e-05 L3.68109176,1.5625e-05 C1.59485908,1.5625e-05 4.60130719e-05,1.62470312 4.60130719e-05,3.75001562 L4.60130719e-05,71.2500156 C4.60130719e-05,73.3753281 1.59485908,75.0000156 3.68109176,75.0000156 L40.982202,75.0000156 L51.5346865,62.9998594 L51.5346865,55.8590781 C57.9424669,53.4248594 62.5184669,47.1279844 62.5184669,39.7622031 L62.5184669,39.7622031 Z" id="Fill-11" fill="#0056CA" mask="url(#mask-2)"></path>
                            </g>
                            <path d="M52.3760049,35.6363437 L51.2746053,36.758375 L49.0655177,34.5079062 L50.1670707,33.385875 L52.3760049,35.6363437 Z M38.5713164,47.4300937 L38.5877278,45.182125 L47.6325173,35.96775 L49.8416049,38.2180625 L40.7969687,47.413375 L38.5713164,47.4300937 Z M50.8739848,31.2057187 C50.4844075,30.8086875 49.8572493,30.8065 49.4403709,31.2063437 L46.9256031,33.7874375 L36.8628511,44.0194687 L36.8522681,44.0311875 C36.6677556,44.2461875 36.5700546,44.4911875 36.5700546,44.7399375 L36.5513426,48.4694687 C36.5513426,48.7499375 36.6580929,49.0193125 36.8439857,49.2088437 C37.0354001,49.4038437 37.2800363,49.5069687 37.5524336,49.5069687 L41.1931413,49.4879062 C41.4641583,49.4879062 41.7087944,49.3847812 41.9002088,49.1897812 L54.4786489,36.375875 C54.8682262,35.9788437 54.8703735,35.3399375 54.4795692,34.9169687 L50.8739848,31.2057187 Z" id="Fill-14" fill="#00ADEE"></path>
                        </g>
                    </g>
                </g>
            </g>
        </g>
    </g>
</svg>