<?xml version="1.0" encoding="UTF-8"?>
<svg width="56px" height="53px" viewBox="0 0 56 53" version="1.1" xmlns="http://www.w3.org/2000/svg" xmlns:xlink="http://www.w3.org/1999/xlink">
    <!-- Generator: sketchtool 63.1 (101010) - https://sketch.com -->
    <title>30A0999E-7C0E-418D-A2DB-1761E0B747BF</title>
    <desc>Created with sketchtool.</desc>
    <defs>
        <polygon id="path-1" points="5.49386139e-05 0.121580185 55.4105366 0.121580185 55.4105366 52.224 5.49386139e-05 52.224"></polygon>
    </defs>
    <g id="Page-1" stroke="none" stroke-width="1" fill="none" fill-rule="evenodd">
        <g id="pf_r_01-copy-2" transform="translate(-68.000000, -39.000000)">
            <g id="Group-18" transform="translate(68.000000, 39.000000)">
                <g id="Group-6">
                    <g id="Group-3">
                        <mask id="mask-2" fill="white">
                            <use xlink:href="#path-1"></use>
                        </mask>
                        <g id="Clip-2"></g>
                        <path d="M50.793001,0.121580185 L4.61764543,0.121580185 C2.00064456,0.121580185 5.49386139e-05,2.09741079 5.49386139e-05,4.68202403 L5.49386139e-05,36.4148185 C5.49386139e-05,38.9992961 2.00064456,40.9751267 4.61764543,40.9751267 L12.3134465,40.9751267 L12.3134465,52.2240407 L23.7033199,40.9751267 L50.793001,40.9751267 C53.4100019,40.9751267 55.4105915,38.9992961 55.4105915,36.4148185 L55.4105915,4.68202403 C55.4105915,2.09741079 53.4100019,0.121580185 50.793001,0.121580185 M50.793001,2.56322174 C52.0361245,2.56322174 52.9383539,3.45428527 52.9383539,4.68202403 L52.9383539,36.4148185 C52.9383539,37.6424217 52.0361245,38.5334852 50.793001,38.5334852 L23.7033199,38.5334852 L22.6792641,38.5334852 L21.9551732,39.2486149 L14.7856841,46.3292397 L14.7856841,40.9751267 L14.7856841,38.5334852 L12.3134465,38.5334852 L4.61764543,38.5334852 C3.37452195,38.5334852 2.47229256,37.6424217 2.47229256,36.4148185 L2.47229256,4.68202403 C2.47229256,3.45428527 3.37452195,2.56322174 4.61764543,2.56322174 L50.793001,2.56322174" id="Fill-1" fill="#0056CA" mask="url(#mask-2)"></path>
                    </g>
                    <path d="M28.5169484,8.16 C28.3125843,8.16 28.105635,8.1980119 27.908482,8.27675082 C27.6032964,8.42893416 27.2987911,8.73289357 27.1462663,9.037396 L24.5537532,14.9705098 L17.8448397,14.9705098 C16.929827,14.9705098 16.32,15.5789717 16.32,16.4919359 C16.32,16.9480787 16.4726608,17.4049002 16.7771662,17.7087239 L22.1139009,22.4251855 L20.1320311,29.1189446 C19.8268455,29.8797255 20.284692,30.792554 21.1997046,30.9448731 C21.333589,30.9895371 21.4545475,31.008 21.5697915,31.008 C21.8485812,31.008 22.0960768,30.9003449 22.4192226,30.792554 L28.5183091,27.4461496 L34.6173956,30.792554 C34.8618978,30.9390356 35.1220471,31.0073212 35.3777064,31.0073212 C35.9195028,31.0073212 36.4414341,30.7011897 36.7519262,30.1842279 C36.904587,29.8797255 37.0572479,29.4235827 36.904587,28.96744 L34.9227172,22.2728664 L40.2594519,17.5572193 C40.8691429,16.9480787 41.0218037,16.0357932 40.4112964,15.4266526 C40.1069272,15.1228289 39.6489446,14.9705098 39.1917785,14.9705098 L32.4828649,14.9705098 L29.8904879,9.037396 C29.6647621,8.47332662 29.1029647,8.16 28.5169484,8.16 M28.5183091,12.0118268 L30.2378525,15.947144 L30.8788376,17.4141317 L32.4828649,17.4141317 L36.727163,17.4141317 L33.298961,20.4434082 L32.1323709,21.4742094 L32.5737539,22.9650902 L33.9585865,27.6423182 L29.6985053,25.3048581 L28.5183091,24.6572983 L27.3381128,25.3048581 L23.1316398,27.612859 L24.4627281,23.1174093 L24.9041112,21.6266642 L23.7377932,20.5958631 L20.1376096,17.4141317 L24.5537532,17.4141317 L26.1577805,17.4141317 L26.7987656,15.947144 L28.5183091,12.0118268" id="Fill-4" fill="#00AFF3"></path>
                </g>
            </g>
        </g>
    </g>
</svg>