<?xml version="1.0" encoding="UTF-8"?>
<svg width="57px" height="74px" viewBox="0 0 57 74" version="1.1" xmlns="http://www.w3.org/2000/svg" xmlns:xlink="http://www.w3.org/1999/xlink">
    <!-- Generator: sketchtool 63.1 (101010) - https://sketch.com -->
    <title>26956D4D-7F47-49D3-85EB-2C5AA8E4020E</title>
    <desc>Created with sketchtool.</desc>
    <defs>
        <polygon id="path-1" points="0 0.0282892758 56.195948 0.0282892758 56.195948 73.6764656 0 73.6764656"></polygon>
    </defs>
    <g id="Page-1" stroke="none" stroke-width="1" fill="none" fill-rule="evenodd">
        <g id="pf_r_01-copy-2" transform="translate(-67.000000, -612.000000)">
            <g id="Group-2-Copy-3" transform="translate(66.000000, 611.000000)">
                <g id="Group-2-Copy-2">
                    <g id="Group-6" transform="translate(0.915493, 0.984425)">
                        <path d="M27.7646815,23.1488346 L27.7646815,21.1730929 L34.3916262,18.3976352 L41.0269079,21.2034029 L41.0269079,23.1847402 C41.0269079,28.0504957 38.4986522,32.6274518 34.3957947,35.2415674 C32.43476,33.9931088 30.7979399,32.2761674 29.6451257,30.2530179 C28.4149632,28.094484 27.7646815,25.63798 27.7646815,23.1488346 M33.6087254,37.4890105 L34.3957947,37.9573379 L35.1833272,37.4890105 C40.2293402,34.4985853 43.3427259,29.0578737 43.3427259,23.1847402 L43.3427259,19.6538656 L34.3957947,15.8705635 L25.4488635,19.6178045 L25.4488635,23.1488346 C25.4488635,29.0578737 28.5624036,34.4985853 33.6087254,37.4890105" id="Fill-1" fill="#00ADEE"></path>
                        <g id="Group-5" transform="translate(0.000000, 0.127146)">
                            <mask id="mask-2" fill="white">
                                <use xlink:href="#path-1"></use>
                            </mask>
                            <g id="Clip-4"></g>
                            <path d="M53.7737568,15.3921328 L50.1403927,19.0501538 L50.1403927,13.9285514 L51.7145314,12.3437302 C52.1990005,11.8561288 52.9258586,11.8561288 53.4101733,12.3437302 C53.6525623,12.5872977 53.7737568,12.8313316 53.7737568,13.1969161 L53.7737568,15.3921328 Z M53.7737568,23.9275669 L50.1403927,27.5855879 L50.1403927,22.4641409 L53.7737568,18.8059645 L53.7737568,23.9275669 Z M53.7737568,32.4628455 L50.1403927,36.1208665 L50.1403927,30.9994195 L53.7737568,27.3413986 L53.7737568,32.4628455 Z M53.7737568,40.5108336 C53.7737568,40.8762627 53.6525623,41.1202965 53.4101733,41.3638641 L50.1403927,44.6563006 L50.1403927,39.5348536 L53.7737568,35.8768326 L53.7737568,40.5108336 Z M47.7182015,4.9056713 L21.0733261,4.9056713 L21.0733261,3.68627916 C21.0733261,2.95448844 21.5577952,2.46688703 22.2846533,2.46688703 L46.5070287,2.46688703 C47.2338868,2.46688703 47.7182015,2.95448844 47.7182015,3.68627916 L47.7182015,4.9056713 Z M21.0733261,43.9245099 L47.7182015,43.9245099 L47.7182015,7.34430014 L21.0733261,7.34430014 L21.0733261,43.9245099 Z M47.7182015,52.4600994 C47.7182015,53.1917347 47.2338868,53.6793361 46.5070287,53.6793361 L22.2846533,53.6793361 C21.5577952,53.6793361 21.0733261,53.1917347 21.0733261,52.4600994 L21.0733261,46.3632941 L47.7182015,46.3632941 L47.7182015,52.4600994 Z M32.5792362,62.3369425 L21.6789897,65.9949635 L21.0733261,66.6045819 L6.78179577,52.2159101 L13.806598,34.4138729 L13.806598,20.7571473 C13.806598,20.0253566 14.2910672,19.5377552 15.0179252,19.5377552 L18.6511349,19.5377552 L18.6511349,52.4600994 C18.6511349,54.5329883 20.225428,56.1181204 22.2846533,56.1181204 L38.7559859,56.1181204 L32.5792362,62.3369425 Z M17.4401165,70.2626028 L3.39082069,56.1181204 L5.32885157,54.1669375 L19.377993,68.31142 L17.4401165,70.2626028 Z M50.1403927,10.5147197 L50.1403927,3.68627916 C50.1403927,1.61323481 48.5656365,0.0282581887 46.5070287,0.0282581887 L22.2846533,0.0282581887 C20.225428,0.0282581887 18.6511349,1.61323481 18.6511349,3.68627916 L18.6511349,17.0989709 L15.0179252,17.0989709 C12.9586999,17.0989709 11.3845612,18.6839475 11.3845612,20.7571473 L11.3845612,33.9258052 L4.23887324,51.7283087 L0,56.1181204 L17.4401165,73.6765899 L22.8901625,68.1894031 L33.7902546,64.5313821 L42.1468066,56.1181204 L46.5070287,56.1181204 C48.5656365,56.1181204 50.1403927,54.5329883 50.1403927,52.4600994 L50.1403927,48.0702877 L55.1061241,43.0708577 C55.8323646,42.3396887 56.195948,41.485881 56.195948,40.5108336 L56.195948,13.1969161 C56.195948,11.7341118 55.3480498,10.3927028 53.8949512,9.90510134 C52.562584,9.29532755 51.1090222,9.66091204 50.1403927,10.5147197 Z" id="Fill-3" fill="#0056CA" mask="url(#mask-2)"></path>
                        </g>
                    </g>
                </g>
            </g>
        </g>
    </g>
</svg>