<?xml version="1.0" encoding="UTF-8"?>
<svg width="72px" height="55px" viewBox="0 0 72 55" version="1.1" xmlns="http://www.w3.org/2000/svg" xmlns:xlink="http://www.w3.org/1999/xlink">
    <!-- Generator: sketchtool 63.1 (101010) - https://sketch.com -->
    <title>8C74E9C1-4518-4631-8B9C-1D34A4999DE0</title>
    <desc>Created with sketchtool.</desc>
    <defs>
        <polygon id="path-1" points="1.55172414e-05 0 34.7586362 0 34.7586362 53.2394057 1.55172414e-05 53.2394057"></polygon>
        <polygon id="path-3" points="0 53.2394366 71.8487069 53.2394366 71.8487069 0 0 0"></polygon>
    </defs>
    <g id="Page-1" stroke="none" stroke-width="1" fill="none" fill-rule="evenodd">
        <g id="pf_r_01-copy-2" transform="translate(-60.000000, -147.000000)">
            <g id="Group-19-Copy-2" transform="translate(60.000000, 147.000000)">
                <g id="Group-8">
                    <g id="Group-14" transform="translate(0.000000, 0.873239)">
                        <g id="Group-3">
                            <mask id="mask-2" fill="white">
                                <use xlink:href="#path-1"></use>
                            </mask>
                            <g id="Clip-2"></g>
                            <path d="M32.2758776,9.06491173 L2.48277414,9.06491173 L2.48277414,3.71434835 C2.48277414,2.97131772 2.97917069,2.47622191 3.72415345,2.47622191 L31.0344983,2.47622191 C31.779481,2.47622191 32.2758776,2.97131772 32.2758776,3.71434835 L32.2758776,9.06491173 Z M32.2758776,49.5250264 C32.2758776,50.268057 31.779481,50.7631528 31.0344983,50.7631528 L3.72415345,50.7631528 C2.97917069,50.7631528 2.48277414,50.268057 2.48277414,49.5250264 L2.48277414,11.5411646 L32.2758776,11.5411646 L32.2758776,49.5250264 Z M31.0344983,-3.09531608e-05 L3.72415345,-3.09531608e-05 C1.61349828,-3.09531608e-05 1.55172414e-05,1.60937864 1.55172414e-05,3.71434835 L1.55172414e-05,49.5250264 C1.55172414e-05,51.6301508 1.61349828,53.2394057 3.72415345,53.2394057 L31.0344983,53.2394057 C33.1451534,53.2394057 34.7586362,51.6301508 34.7586362,49.5250264 L34.7586362,3.71434835 C34.7586362,1.60937864 33.1451534,-3.09531608e-05 31.0344983,-3.09531608e-05 L31.0344983,-3.09531608e-05 Z" id="Fill-1" fill="#0056CA" mask="url(#mask-2)"></path>
                        </g>
                        <mask id="mask-4" fill="white">
                            <use xlink:href="#path-3"></use>
                        </mask>
                        <g id="Clip-5"></g>
                        <polygon id="Fill-4" fill="#0056CA" mask="url(#mask-4)" points="6.49117241 18.2007681 28.2674483 18.2007681 28.2674483 15.7245152 6.49117241 15.7245152"></polygon>
                        <polygon id="Fill-6" fill="#0056CA" mask="url(#mask-4)" points="6.49117241 25.9073313 28.2674483 25.9073313 28.2674483 23.4310784 6.49117241 23.4310784"></polygon>
                        <polygon id="Fill-7" fill="#0056CA" mask="url(#mask-4)" points="6.49117241 33.6140493 28.2674483 33.6140493 28.2674483 31.1377964 6.49117241 31.1377964"></polygon>
                        <path d="M10.2331552,43.2395537 L24.5254655,43.2395537 L24.5254655,41.8466615 L10.2331552,41.8466615 L10.2331552,43.2395537 Z M7.75039655,45.7158066 L27.0082241,45.7158066 L27.0082241,39.3704086 L7.75039655,39.3704086 L7.75039655,45.7158066 Z" id="Fill-8" fill="#00ADEE" mask="url(#mask-4)"></path>
                        <path d="M69.3660259,9.06491173 L39.5729224,9.06491173 L39.5729224,3.71434835 C39.5729224,2.97131772 40.069319,2.47622191 40.8143017,2.47622191 L68.1246466,2.47622191 C68.8696293,2.47622191 69.3660259,2.97131772 69.3660259,3.71434835 L69.3660259,9.06491173 Z M69.3660259,49.5250264 C69.3660259,50.268057 68.8696293,50.7631528 68.1246466,50.7631528 L40.8143017,50.7631528 C40.069319,50.7631528 39.5729224,50.268057 39.5729224,49.5250264 L39.5729224,11.5411646 L69.3660259,11.5411646 L69.3660259,49.5250264 Z M68.1246466,-3.09531608e-05 L40.8143017,-3.09531608e-05 C38.7036466,-3.09531608e-05 37.0901638,1.60937864 37.0901638,3.71434835 L37.0901638,49.5250264 C37.0901638,51.6301508 38.7036466,53.2394057 40.8143017,53.2394057 L68.1246466,53.2394057 C70.2353017,53.2394057 71.8487845,51.6301508 71.8487845,49.5250264 L71.8487845,3.71434835 C71.8487845,1.60937864 70.2353017,-3.09531608e-05 68.1246466,-3.09531608e-05 L68.1246466,-3.09531608e-05 Z" id="Fill-9" fill="#0056CA" mask="url(#mask-4)"></path>
                        <polygon id="Fill-10" fill="#0056CA" mask="url(#mask-4)" points="43.5812586 18.2007681 65.3575345 18.2007681 65.3575345 15.7245152 43.5812586 15.7245152"></polygon>
                        <polygon id="Fill-11" fill="#0056CA" mask="url(#mask-4)" points="43.5812586 25.9073313 65.3575345 25.9073313 65.3575345 23.4310784 43.5812586 23.4310784"></polygon>
                        <polygon id="Fill-12" fill="#0056CA" mask="url(#mask-4)" points="43.5812586 33.6140493 65.3575345 33.6140493 65.3575345 31.1377964 43.5812586 31.1377964"></polygon>
                        <path d="M47.3232414,43.2395537 L61.6155517,43.2395537 L61.6155517,41.8466615 L47.3232414,41.8466615 L47.3232414,43.2395537 Z M44.8404828,45.7158066 L64.0983103,45.7158066 L64.0983103,39.3704086 L44.8404828,39.3704086 L44.8404828,45.7158066 Z" id="Fill-13" fill="#00ADEE" mask="url(#mask-4)"></path>
                    </g>
                </g>
            </g>
        </g>
    </g>
</svg>