<?xml version="1.0" encoding="UTF-8"?>
<svg width="68px" height="49px" viewBox="0 0 68 49" version="1.1" xmlns="http://www.w3.org/2000/svg" xmlns:xlink="http://www.w3.org/1999/xlink">
    <!-- Generator: sketchtool 63.1 (101010) - https://sketch.com -->
    <title>46A92F9C-8E15-465A-BB76-44E1F56D753B</title>
    <desc>Created with sketchtool.</desc>
    <defs>
        <polygon id="path-1" points="0 0 67.0422225 0 67.0422225 47.3239437 0 47.3239437"></polygon>
        <polygon id="path-3" points="0 47.3239437 67.0422535 47.3239437 67.0422535 0 0 0"></polygon>
    </defs>
    <g id="Page-1" stroke="none" stroke-width="1" fill="none" fill-rule="evenodd">
        <g id="pf_r_01-copy-2" transform="translate(-61.000000, -269.000000)">
            <g id="Group-18-Copy-5" transform="translate(61.000000, 269.000000)">
                <g id="Group-18-Copy-4">
                    <g id="Group-17" transform="translate(0.000000, 0.830986)">
                        <g id="Group-3">
                            <mask id="mask-2" fill="white">
                                <use xlink:href="#path-1"></use>
                            </mask>
                            <g id="Clip-2"></g>
                            <path d="M64.5591761,43.5878428 C64.5591761,44.3352187 64.062722,44.8332098 63.3176528,44.8332098 L3.7245386,44.8332098 C2.97946948,44.8332098 2.48301539,44.3352187 2.48301539,43.5878428 L2.48301539,3.73610082 C2.48301539,2.98872498 2.97946948,2.49073388 3.7245386,2.49073388 L63.3176528,2.49073388 C64.062722,2.49073388 64.5591761,2.98872498 64.5591761,3.73610082 L64.5591761,43.5878428 Z M63.3176528,0 L3.7245386,0 C1.61363876,0 -3.10380803e-05,1.61866568 -3.10380803e-05,3.73610082 L-3.10380803e-05,43.5878428 C-3.10380803e-05,45.705278 1.61363876,47.3239437 3.7245386,47.3239437 L63.3176528,47.3239437 C65.4285527,47.3239437 67.0422225,45.705278 67.0422225,43.5878428 L67.0422225,3.73610082 C67.0422225,1.61866568 65.4285527,0 63.3176528,0 L63.3176528,0 Z" id="Fill-1" fill="#0056CA" mask="url(#mask-2)"></path>
                        </g>
                        <mask id="mask-4" fill="white">
                            <use xlink:href="#path-3"></use>
                        </mask>
                        <g id="Clip-5"></g>
                        <polygon id="Fill-4" fill="#0056CA" mask="url(#mask-4)" points="7.44913928 9.96293551 37.2456964 9.96293551 37.2456964 7.47220163 7.44913928 7.47220163"></polygon>
                        <path d="M57.1100368,16.1897702 C57.1100368,16.937146 56.6135827,17.4351371 55.8685136,17.4351371 L54.6269903,17.4351371 L54.6269903,9.96293551 L55.8685136,9.96293551 C56.6135827,9.96293551 57.1100368,10.4609266 57.1100368,11.2083024 L57.1100368,16.1897702 Z M52.1439439,12.4536694 L48.4193743,12.4536694 L48.4193743,11.2083024 C48.4193743,10.4609266 48.9158284,9.96293551 49.6608975,9.96293551 L52.1439439,9.96293551 L52.1439439,12.4536694 Z M52.1439439,17.4351371 L49.6608975,17.4351371 C48.9158284,17.4351371 48.4193743,16.937146 48.4193743,16.1897702 L48.4193743,14.9444033 L52.1439439,14.9444033 L52.1439439,17.4351371 Z M55.8685136,7.47220163 L49.6608975,7.47220163 C47.5499977,7.47220163 45.9363279,9.09086731 45.9363279,11.2083024 L45.9363279,16.1897702 C45.9363279,18.3072053 47.5499977,19.925871 49.6608975,19.925871 L55.8685136,19.925871 C57.9794134,19.925871 59.5930832,18.3072053 59.5930832,16.1897702 L59.5930832,11.2083024 C59.5930832,9.09086731 57.9794134,7.47220163 55.8685136,7.47220163 L55.8685136,7.47220163 Z" id="Fill-6" fill="#00ADEE" mask="url(#mask-4)"></path>
                        <polygon id="Fill-7" fill="#0056CA" mask="url(#mask-4)" points="7.44913928 14.9444033 21.1058946 14.9444033 21.1058946 12.4536694 7.44913928 12.4536694"></polygon>
                        <polygon id="Fill-8" fill="#00ADEE" mask="url(#mask-4)" points="7.44913928 33.6249073 11.1737089 33.6249073 11.1737089 31.1341735 7.44913928 31.1341735"></polygon>
                        <polygon id="Fill-9" fill="#00ADEE" mask="url(#mask-4)" points="13.6567553 33.6249073 17.381325 33.6249073 17.381325 31.1341735 13.6567553 31.1341735"></polygon>
                        <polygon id="Fill-10" fill="#00ADEE" mask="url(#mask-4)" points="19.8643714 33.6249073 23.5889411 33.6249073 23.5889411 31.1341735 19.8643714 31.1341735"></polygon>
                        <polygon id="Fill-11" fill="#00ADEE" mask="url(#mask-4)" points="26.0719875 33.6249073 29.7965571 33.6249073 29.7965571 31.1341735 26.0719875 31.1341735"></polygon>
                        <polygon id="Fill-12" fill="#00ADEE" mask="url(#mask-4)" points="32.2796035 33.6249073 36.0041732 33.6249073 36.0041732 31.1341735 32.2796035 31.1341735"></polygon>
                        <polygon id="Fill-13" fill="#00ADEE" mask="url(#mask-4)" points="38.4872196 33.6249073 42.2117893 33.6249073 42.2117893 31.1341735 38.4872196 31.1341735"></polygon>
                        <polygon id="Fill-14" fill="#00ADEE" mask="url(#mask-4)" points="44.6948357 33.6249073 48.4194053 33.6249073 48.4194053 31.1341735 44.6948357 31.1341735"></polygon>
                        <polygon id="Fill-15" fill="#0056CA" mask="url(#mask-4)" points="7.44913928 39.851742 13.6567553 39.851742 13.6567553 37.3610082 7.44913928 37.3610082"></polygon>
                        <polygon id="Fill-16" fill="#0056CA" mask="url(#mask-4)" points="16.1398018 39.851742 22.3474178 39.851742 22.3474178 37.3610082 16.1398018 37.3610082"></polygon>
                    </g>
                </g>
            </g>
        </g>
    </g>
</svg>