<?xml version="1.0" encoding="UTF-8"?>
<svg width="66px" height="80px" viewBox="0 0 66 80" version="1.1" xmlns="http://www.w3.org/2000/svg" xmlns:xlink="http://www.w3.org/1999/xlink">
    <!-- Generator: sketchtool 63.1 (101010) - https://sketch.com -->
    <title>5C0EE4CF-8C98-44D8-8A72-C6456FE96EA8</title>
    <desc>Created with sketchtool.</desc>
    <defs>
        <polygon id="path-1" points="0 0.030877193 65.0674409 0.030877193 65.0674409 79.8245614 0 79.8245614"></polygon>
    </defs>
    <g id="Page-1" stroke="none" stroke-width="1" fill="none" fill-rule="evenodd">
        <g id="pf_r_01-copy-2" transform="translate(-63.000000, -372.000000)">
            <g id="Group-15-Copy-3" transform="translate(62.000000, 372.000000)">
                <g id="Group-15-Copy-2">
                    <g id="Group-6" transform="translate(0.971831, 0.000000)">
                        <g id="Group-3" transform="translate(0.000000, 0.144561)">
                            <mask id="mask-2" fill="white">
                                <use xlink:href="#path-1"></use>
                            </mask>
                            <g id="Clip-2"></g>
                            <path d="M62.4647994,26.455 C62.4647994,46.7616667 51.6638108,65.6362281 34.0956737,75.9195614 L32.5338081,76.700614 L30.9724688,75.7897368 C13.4041563,65.6362281 2.60264151,46.7616667 2.60264151,26.455 L2.60264151,15.390614 L32.5338081,2.89482456 L62.4647994,15.390614 L62.4647994,26.455 Z M32.5338081,0.0307894737 L0,13.5683333 L0,26.3253509 C0,47.6730702 11.3219027,67.3288596 29.6710603,78.1325439 L32.5338081,79.8246491 L35.3969067,78.1325439 C53.7460643,67.3288596 65.0674409,47.6730702 65.0674409,26.455 L65.0674409,13.6986842 L32.5338081,0.0307894737 Z" id="Fill-1" fill="#0056CA" mask="url(#mask-2)"></path>
                        </g>
                        <path d="M52.0539878,39.3566491 C52.0539878,44.4331404 50.1018751,49.3792807 46.4584576,53.0243684 L44.7662758,43.5215614 C44.3762041,41.1789298 42.6847239,39.2262982 40.4721541,38.5754211 L36.9581759,37.4040175 L38.9102886,32.5875263 C39.0406048,32.067 39.1707457,31.6768246 39.1707457,31.1555965 L39.1707457,30.2447193 C39.1707457,26.5996316 36.3076471,23.7362982 32.6638788,23.7362982 C29.0204613,23.7362982 26.1573627,26.5996316 26.1573627,30.2447193 L26.1573627,31.0259474 C26.1573627,31.5464737 26.2875036,32.067 26.4178198,32.4571754 L28.3697571,37.2736667 L24.8559543,38.4452456 C22.6432091,39.2262982 20.9519043,41.1789298 20.5616572,43.3919123 L18.8696508,52.8940175 C14.9656009,49.3792807 13.0134882,44.4331404 13.0134882,39.3566491 C13.0134882,28.5522632 21.7327494,19.8312105 32.533738,19.8312105 C43.3352527,19.8312105 52.0539878,28.5522632 52.0539878,39.3566491 M20.8215881,54.977 L22.7737008,43.912614 C23.0341579,42.4806842 24.0751092,41.3091053 25.3761669,40.9182281 L28.8903205,39.7468246 C30.1915535,39.3566491 30.972574,37.7943684 30.5816253,36.492614 L30.5816253,36.3622632 L28.7598289,31.5464737 C28.7598289,31.4161228 28.629688,31.2857719 28.629688,31.0259474 L28.629688,30.2447193 C28.629688,28.0315614 30.3218698,26.3396316 32.533738,26.3396316 C34.7461323,26.3396316 36.4377879,28.0315614 36.4377879,30.2447193 L36.4377879,31.0259474 C36.4377879,31.1555965 36.4377879,31.4161228 36.3076471,31.5464737 L34.3555344,36.3622632 C33.8351464,37.6640175 34.4858507,39.2262982 35.7870837,39.7468246 L35.9173999,39.7468246 L39.4312028,40.9182281 C40.7326112,41.3091053 41.7735626,42.4806842 42.0340197,43.912614 L44.2457125,54.977 C37.3489492,60.1836667 27.7192283,60.1836667 20.8215881,54.977 M10.4106713,39.3566491 C10.4106713,51.5924386 20.3012001,61.4854211 32.533738,61.4854211 C44.7662758,61.4854211 54.6566293,51.5924386 54.6566293,39.3566491 C54.6566293,27.1208596 44.7662758,17.2277018 32.533738,17.2277018 C20.3012001,17.2277018 10.4106713,27.1208596 10.4106713,39.3566491" id="Fill-4" fill="#00ADEE"></path>
                    </g>
                </g>
            </g>
        </g>
    </g>
</svg>