<?xml version="1.0" encoding="UTF-8"?>
<svg width="53px" height="69px" viewBox="0 0 53 69" version="1.1" xmlns="http://www.w3.org/2000/svg" xmlns:xlink="http://www.w3.org/1999/xlink">
    <!-- Generator: sketchtool 63.1 (101010) - https://sketch.com -->
    <title>663C7339-C62D-4141-92D2-EE29BBD7B4C7</title>
    <desc>Created with sketchtool.</desc>
    <defs>
        <polygon id="path-1" points="0.13401697 0.0567534 41.860392 0.0567534 41.860392 54.1401108 0.13401697 54.1401108"></polygon>
        <polygon id="path-3" points="0.000109747168 0.0893129954 43.2872149 0.0893129954 43.2872149 61.5360774 0.000109747168 61.5360774"></polygon>
    </defs>
    <g id="Page-1" stroke="none" stroke-width="1" fill="none" fill-rule="evenodd">
        <g id="pf_r_01-copy-2" transform="translate(-69.000000, -734.000000)">
            <g id="Group-9-Copy-4" transform="translate(69.000000, 733.000000)">
                <g id="Group-9-Copy-3">
                    <g id="Group-26" transform="translate(0.873239, 0.977824)">
                        <polygon id="Fill-2" fill="#0056CA" points="17.5209786 22.0930097 26.7968092 22.0930097 26.7968092 20.0448709 17.5209786 20.0448709"></polygon>
                        <polygon id="Fill-4" fill="#0056CA" points="17.5209786 30.2860321 26.7968092 30.2860321 26.7968092 28.2378933 17.5209786 28.2378933"></polygon>
                        <polygon id="Fill-6" fill="#0056CA" points="17.5209786 38.4788987 26.7968092 38.4788987 26.7968092 36.4307599 17.5209786 36.4307599"></polygon>
                        <path d="M8.24514795,22.0930097 L13.3984046,22.0930097 L13.3984046,20.0448709 L8.24514795,20.0448709 L8.24514795,22.0930097 Z M6.18393935,24.14146 L15.45977,24.14146 L15.45977,17.9967322 L6.18393935,17.9967322 L6.18393935,24.14146 Z" id="Fill-1" fill="#00ADEE"></path>
                        <path d="M8.24514795,30.2860321 L13.3984046,30.2860321 L13.3984046,28.2378933 L8.24514795,28.2378933 L8.24514795,30.2860321 Z M6.18393935,32.3341708 L15.45977,32.3341708 L15.45977,26.1895988 L6.18393935,26.1895988 L6.18393935,32.3341708 Z" id="Fill-3" fill="#00ADEE"></path>
                        <path d="M8.24514795,38.4788987 L13.3984046,38.4788987 L13.3984046,36.4307599 L8.24514795,36.4307599 L8.24514795,38.4788987 Z M6.18393935,40.5271932 L15.45977,40.5271932 L15.45977,34.3826212 L6.18393935,34.3826212 L6.18393935,40.5271932 Z" id="Fill-5" fill="#00ADEE"></path>
                        <path d="M8.24514795,46.6717653 L13.3984046,46.6717653 L13.3984046,44.6236265 L8.24514795,44.6236265 L8.24514795,46.6717653 Z M6.18393935,48.7202156 L15.45977,48.7202156 L15.45977,42.5754878 L6.18393935,42.5754878 L6.18393935,48.7202156 Z" id="Fill-7" fill="#00ADEE"></path>
                        <polygon id="Fill-9" fill="#00ADEE" points="6.18393935 56.9129265 13.3985614 56.9129265 13.3985614 54.8647877 6.18393935 54.8647877"></polygon>
                        <polygon id="Fill-10" fill="#00ADEE" points="16.4902959 56.9129265 27.8276487 56.9129265 27.8276487 54.8647877 16.4902959 54.8647877"></polygon>
                        <polygon id="Fill-8" fill="#0056CA" points="17.5209786 46.6717653 26.7968092 46.6717653 26.7968092 44.6236265 17.5209786 44.6236265"></polygon>
                        <polygon id="Fill-11" fill="#0056CA" points="28.8581746 22.0931655 31.9502227 22.0931655 31.9502227 20.0450267 28.8581746 20.0450267"></polygon>
                        <polygon id="Fill-12" fill="#0056CA" points="34.0114313 22.0931655 37.1034793 22.0931655 37.1034793 20.0450267 34.0114313 20.0450267"></polygon>
                        <polygon id="Fill-13" fill="#0056CA" points="28.8581746 30.2860321 31.9502227 30.2860321 31.9502227 28.2378933 28.8581746 28.2378933"></polygon>
                        <polygon id="Fill-14" fill="#0056CA" points="34.0114313 30.2860321 37.1034793 30.2860321 37.1034793 28.2378933 34.0114313 28.2378933"></polygon>
                        <polygon id="Fill-15" fill="#0056CA" points="28.8581746 38.4788987 31.9502227 38.4788987 31.9502227 36.4307599 28.8581746 36.4307599"></polygon>
                        <polygon id="Fill-16" fill="#0056CA" points="34.0114313 38.4788987 37.1034793 38.4788987 37.1034793 36.4307599 34.0114313 36.4307599"></polygon>
                        <polygon id="Fill-17" fill="#0056CA" points="28.8581746 46.6717653 31.9502227 46.6717653 31.9502227 44.6236265 28.8581746 44.6236265"></polygon>
                        <polygon id="Fill-18" fill="#0056CA" points="34.0114313 46.6717653 37.1034793 46.6717653 37.1034793 44.6236265 34.0114313 44.6236265"></polygon>
                        <g id="Group-25" transform="translate(0.000000, 0.099081)">
                            <g id="Group-21" transform="translate(9.406900, 0.000000)">
                                <mask id="mask-2" fill="white">
                                    <use xlink:href="#path-1"></use>
                                </mask>
                                <g id="Clip-20"></g>
                                <path d="M38.8799411,0.0567534 L3.11459327,0.0567534 C1.42542757,0.0567534 0.13401697,1.33981956 0.13401697,3.01827449 L0.13401697,6.11657705 L2.12106784,6.11657705 L2.12106784,3.01827449 C2.12106784,2.42597028 2.51835259,2.03104887 3.11459327,2.03104887 L38.8799411,2.03104887 C39.4761818,2.03104887 39.8734665,2.42597028 39.8734665,3.01827449 L39.8734665,51.1785897 C39.8734665,51.7710497 39.4761818,52.1658153 38.8799411,52.1658153 L35.9258609,52.1658153 L35.9258609,54.1401108 L38.8799411,54.1401108 C40.5691068,54.1401108 41.8605174,52.8570447 41.8605174,51.1785897 L41.8605174,3.01827449 C41.8605174,1.33981956 40.5691068,0.0567534 38.8799411,0.0567534" id="Fill-19" fill="#0056CA" mask="url(#mask-2)"></path>
                            </g>
                            <g id="Group-24" transform="translate(0.000000, 6.543077)">
                                <mask id="mask-4" fill="white">
                                    <use xlink:href="#path-3"></use>
                                </mask>
                                <g id="Clip-23"></g>
                                <path d="M41.2260063,58.4636824 C41.2260063,59.0782642 40.8138273,59.4878296 40.1953236,59.4878296 L3.09200103,59.4878296 C2.47349735,59.4878296 2.06116156,59.0782642 2.06116156,58.4636824 L2.06116156,19.0763865 L2.06116156,19.0763865 L2.06116156,3.16159903 C2.06116156,2.54701719 2.47334057,2.13745176 3.09200103,2.13745176 L40.1953236,2.13745176 C40.8138273,2.13745176 41.2260063,2.54701719 41.2260063,3.16159903 L41.2260063,42.5488949 L41.2260063,58.4636824 Z M42.1806499,0.776491825 C42.0288852,0.652952307 41.8644212,0.543901031 41.6888258,0.451207446 C41.5133871,0.358358073 41.3269737,0.28202218 41.1313102,0.223601853 C40.8378149,0.136049257 40.5237812,0.0893129954 40.1953236,0.0893129954 L15.459723,0.0893129954 L3.09200103,0.0893129954 C1.33965232,0.0893129954 0.000109747168,1.42036172 0.000109747168,3.16159903 L0.000109747168,19.0763865 L0.000109747168,58.4636824 C0.000109747168,59.4431186 0.423890597,60.2927838 1.10667476,60.8489453 C1.25828264,60.9724849 1.42290339,61.0815361 1.59834208,61.1740739 C1.77378076,61.2669233 1.96035095,61.343415 2.15585769,61.4016795 C2.44935297,61.4892321 2.76338666,61.5361242 3.09200103,61.5361242 L27.8276017,61.5361242 L40.1953236,61.5361242 C41.9476723,61.5361242 43.2872149,60.2049197 43.2872149,58.4636824 L43.2872149,42.5488949 L43.2872149,3.16159903 C43.2872149,2.18216278 42.8632773,1.33249755 42.1806499,0.776491825 L42.1806499,0.776491825 Z" id="Fill-22" fill="#0056CA" mask="url(#mask-4)"></path>
                            </g>
                        </g>
                    </g>
                </g>
            </g>
        </g>
    </g>
</svg>