<?xml version="1.0" encoding="UTF-8"?>
<svg width="55px" height="55px" viewBox="0 0 55 55" version="1.1" xmlns="http://www.w3.org/2000/svg" xmlns:xlink="http://www.w3.org/1999/xlink">
    <!-- Generator: sketchtool 63.1 (101010) - https://sketch.com -->
    <title>3DFFFBFF-8E35-4BE0-95F7-D54C9D23A13A</title>
    <desc>Created with sketchtool.</desc>
    <g id="Page-1" stroke="none" stroke-width="1" fill="none" fill-rule="evenodd">
        <g id="pf_r_01-copy-2" transform="translate(-69.000000, -854.000000)" fill-rule="nonzero">
            <g id="healthcare-and-medical" transform="translate(69.000000, 854.000000)">
                <path d="M53.688056,30.994932 C52.8605686,30.7730536 51.9567636,31.2442505 51.7189145,32.1317644 L51.6817205,32.2706796 L47.9614568,31.2738343 C48.1931962,30.0305646 48.3156043,28.7493505 48.3156043,27.4399459 C48.3156043,26.1304342 48.193089,24.8491129 47.9613496,23.605736 L51.6816133,22.6088907 L51.7188073,22.7478059 C51.9566564,23.635427 52.8605686,24.1065168 53.6879489,23.8846383 C54.5456632,23.6548279 55.0546966,22.7732094 54.8247795,21.9154937 L53.9180804,18.5316863 C53.6881632,17.6739706 52.807082,17.1648292 51.9489389,17.3948539 C51.0912245,17.6246643 50.5822983,18.5062828 50.8121083,19.3639985 L50.8493024,19.5029137 L47.1279668,20.5000806 C46.26082,18.0474124 44.9483091,15.8036531 43.28701,13.8668791 L46.0182547,11.1356303 L46.1199756,11.2373513 C46.7476656,11.8651495 47.7658396,11.8653639 48.393744,11.2373513 C49.0216483,10.609446 49.0216483,9.59148475 48.393744,8.96357941 L45.9166409,6.48647248 C45.2888437,5.85856714 44.2707769,5.85856714 43.6428725,6.48647248 C43.0149682,7.11437782 43.0149682,8.13233907 43.6428725,8.76024441 L43.7445935,8.86196551 L41.0133488,11.5931072 C39.0763636,9.9316984 36.8325005,8.61907826 34.379729,7.75203724 L35.3767871,4.03091027 L35.5157021,4.06810439 C36.406859,4.3069185 37.2643589,3.7542589 37.4848436,2.93127201 C37.7146536,2.07355632 37.2057274,1.19193778 36.348013,0.962127424 L32.9642109,0.0554269674 C32.1063894,-0.174490574 31.2247722,0.334650834 30.9950694,1.19225934 C30.7652594,2.04997503 31.2741856,2.93159358 32.1319,3.16140393 L32.270815,3.19859805 L31.2739713,6.91886752 C30.0307035,6.68712779 28.7494913,6.56471948 27.4400889,6.56471948 C26.1306864,6.56471948 24.8494742,6.68712779 23.6062065,6.91886752 L22.6093627,3.19859805 L22.7482777,3.16140393 C23.6059921,2.93159358 24.1149183,2.04997503 23.8851083,1.19225934 C23.6554055,0.334436459 22.7737883,-0.174704949 21.916074,0.0552125921 L18.5322719,0.961913049 C17.6745575,1.1917234 17.1656313,2.07334194 17.3954413,2.93105764 C17.615926,3.75415172 18.4734259,4.30681132 19.3645828,4.06789001 L19.5034978,4.03069589 L20.5005559,7.75182286 C18.0477844,8.61897107 15.8039213,9.93148403 13.8669361,11.5928928 L11.1356914,8.86175113 L11.2374124,8.76003004 C11.8653167,8.1321247 11.8653167,7.11416345 11.2374124,6.4862581 C10.6096152,5.85835276 9.59154835,5.85835276 8.96364399,6.4862581 L6.48654092,8.96336504 C5.85863656,9.59127038 5.85863656,10.6092316 6.48654092,11.237137 C7.11444528,11.8651495 8.13261932,11.8649351 8.7603093,11.237137 L8.86203024,11.1354159 L11.5932749,13.8666648 C9.93197584,15.8035459 8.61946493,18.0473053 7.75231808,20.4998662 L4.03098254,19.5026994 L4.0681766,19.3637842 C4.2979866,18.5060685 3.78906036,17.6244499 2.931346,17.3946396 C2.0732029,17.1646148 1.19201448,17.6737562 0.962204489,18.5314719 L0.0552910727,21.9156009 C-0.174518922,22.7733166 0.334407316,23.6549351 1.19212167,23.8847455 C2.01960915,24.1066239 2.92341413,23.635427 3.16126319,22.7479131 L3.19845725,22.6089979 L6.91872091,23.6058432 C6.68698154,24.8492201 6.56446623,26.1305414 6.56446623,27.4400531 C6.56446623,28.7494576 6.68687435,30.0306718 6.91861372,31.2739415 L3.19835006,32.2707868 L3.161156,32.1318716 C2.92330694,31.2442505 2.01939478,30.7731608 1.19201448,30.9950392 C0.334300129,31.2248496 -0.174626109,32.1064681 0.0551838852,32.9641838 L0.961882926,36.3479912 C1.19180011,37.2057069 2.07288134,37.7148483 2.93102444,37.4848236 C3.7887388,37.2550132 4.29766503,36.3733947 4.06785504,35.515679 L4.03066098,35.3767638 L7.75178214,34.3797041 C8.61892899,36.8324794 9.9314399,39.076346 11.5928461,41.0133343 L8.86160149,43.7445832 L8.75988055,43.6428621 C8.13219057,43.015064 7.11401653,43.0148496 6.48611217,43.6428621 C5.85820781,44.2707674 5.85820781,45.2887287 6.48611217,45.916634 L8.96321524,48.393741 C9.59101241,49.0216463 10.6090793,49.0216463 11.2369836,48.393741 C11.864888,47.7658356 11.864888,46.7478744 11.2369836,46.119969 L11.1352627,46.0182479 L13.8665073,43.2871062 C15.8034926,44.9485151 18.0473556,46.2611352 20.5001271,47.1281762 L19.503069,50.8493032 L19.3641541,50.8121091 C18.4729972,50.573295 17.6154972,51.1259546 17.3950125,51.9489414 C17.1652025,52.8066571 17.6741288,53.6882757 18.5318431,53.918086 L21.9156452,54.8247865 C22.7734668,55.054704 23.6550839,54.5455626 23.8847868,53.6879541 C24.1145968,52.8302384 23.6056705,51.9486199 22.7479562,51.7188095 L22.6090412,51.6816154 L23.6058849,47.9613459 C24.8491527,48.1930857 26.1303648,48.315494 27.4397673,48.315494 C28.7491698,48.315494 30.0303819,48.1930857 31.2736497,47.9613459 L32.2704934,51.6816154 L32.1315784,51.7188095 C31.2738641,51.9486199 30.7649378,52.8302384 30.9947478,53.6879541 C31.2245578,54.5455626 32.1060678,55.054704 32.9638894,54.8247865 L36.3476915,53.918086 C37.2054058,53.6882757 37.7143321,52.8066571 37.4845221,51.9489414 C37.2640374,51.1258474 36.4065374,50.5731878 35.5153805,50.8121091 L35.3764655,50.8493032 L34.3794074,47.1281762 C36.8321789,46.261028 39.076042,44.9485151 41.0130273,43.2871062 L43.7442719,46.0182479 L43.642551,46.119969 C43.0146466,46.7478744 43.0146466,47.7658356 43.642551,48.393741 C44.2703481,49.0216463 45.288415,49.0216463 45.9163194,48.393741 L48.3934224,45.916634 C49.0213268,45.2887287 49.0213268,44.2707674 48.3934224,43.6428621 C47.7655181,43.0148496 46.747344,43.015064 46.119654,43.6428621 L46.0179331,43.7445832 L43.2866885,41.0133343 C44.9480947,39.076346 46.2607128,36.8324794 47.1277525,34.3797041 L50.8488736,35.3767638 L50.8116796,35.515679 C50.5818696,36.3733947 51.0907958,37.2550132 51.9485102,37.4848236 C52.8066533,37.7148483 53.6878417,37.2057069 53.9176517,36.3479912 L54.8243507,32.9641838 C55.0546966,32.1063609 54.5457704,31.2247424 53.688056,30.994932 Z M27.4400889,45.0999712 C17.7024263,45.0999712 9.78019834,37.1777309 9.78019834,27.4400531 C9.78019834,17.7023753 17.7024263,9.78013504 27.4400889,9.78013504 C37.1777514,9.78013504 45.0999794,17.7023753 45.0999794,27.4400531 C45.0999794,37.1777309 37.1777514,45.0999712 27.4400889,45.0999712 Z" id="Shape" fill="#0056CA"></path>
                <circle id="Oval" fill="#00ADEE" cx="27.44" cy="15.12" r="1.68"></circle>
                <circle id="Oval" fill="#00ADEE" cx="27.44" cy="39.76" r="1.68"></circle>
                <circle id="Oval" fill="#00ADEE" cx="24.08" cy="30.8" r="1.68"></circle>
                <circle id="Oval" fill="#00ADEE" cx="30.8" cy="30.8" r="1.68"></circle>
                <circle id="Oval" fill="#00ADEE" cx="30.8" cy="24.08" r="1.68"></circle>
                <circle id="Oval" fill="#00ADEE" cx="24.08" cy="24.08" r="1.68"></circle>
                <circle id="Oval" fill="#00ADEE" cx="39.76" cy="27.44" r="1.68"></circle>
                <circle id="Oval" fill="#00ADEE" cx="15.12" cy="27.44" r="1.68"></circle>
                <circle id="Oval" fill="#00ADEE" cx="35.28" cy="18.48" r="1.68"></circle>
                <circle id="Oval" fill="#00ADEE" cx="18.48" cy="35.28" r="1.68"></circle>
                <circle id="Oval" fill="#00ADEE" cx="35.28" cy="35.28" r="1.68"></circle>
                <circle id="Oval" fill="#00ADEE" cx="18.48" cy="18.48" r="1.68"></circle>
            </g>
        </g>
    </g>
</svg>